<svg id="Layer_1" data-name="Layer 1" xmlns="http://www.w3.org/2000/svg" viewBox="0 0 794.82 990.5"><defs><style>.cls-1{fill:#c9e3e4;}</style></defs><title>logo</title><path class="cls-1" d="M794.81,211.9a71.18,71.18,0,0,0-71.18-70.17H89.16A33.77,33.77,0,0,1,55.39,108V91.42A33.77,33.77,0,0,1,89.16,57.65h704.3A71.7,71.7,0,0,0,723.15,0H48.33A48.34,48.34,0,0,0,0,48.35V939.8a50.69,50.69,0,0,0,50.7,50.7H712.43a82.39,82.39,0,0,0,82.39-82.39V212.93C794.82,212.58,794.82,212.24,794.81,211.9ZM624.23,786.76c-43.89,0-86.2-15.17-125.76-45.08-30.74-23.24-58.6-54.57-83.07-93.37a281.33,281.33,0,0,1-24,60.79c-27.44,50.08-66.26,77.66-109.32,77.66s-81.88-27.58-109.31-77.66c-23.81-43.46-36.92-100.48-36.92-160.56a34.84,34.84,0,0,1,34.8-34.8H334.72l-1.05-1.91C289,430.29,229.57,383.53,170.6,383.53a34.8,34.8,0,0,1,0-69.6c43.88,0,86.19,15.17,125.76,45.08,30.73,23.24,58.59,54.57,83.07,93.37a280.32,280.32,0,0,1,24.05-60.79c27.43-50.08,66.25-77.66,109.31-77.66s81.89,27.58,109.32,77.66C645.92,435.05,659,492.07,659,552.14a34.84,34.84,0,0,1-34.8,34.8H460.1l1,1.92c44.67,81.54,104.11,128.3,163.08,128.3a34.8,34.8,0,0,1,0,69.6Z"/><path class="cls-1" d="M233.76,675.66c14.44,26.38,32,41.5,48.27,41.5s33.83-15.12,48.28-41.5c13.67-25,22.9-57.22,26.57-92.32H207.18C210.85,618.44,220.08,650.7,233.76,675.66Z"/><path class="cls-1" d="M561.07,425c-14.45-26.38-32.05-41.5-48.28-41.5S479,398.65,464.52,425c-13.68,25-22.91,57.21-26.58,92.31h149.7C584,482.25,574.74,450,561.07,425Z"/></svg>